<svg width="20" height="23" viewBox="0 0 20 23" fill="none" xmlns="http://www.w3.org/2000/svg">
<path d="M16.037 12.1836C16.037 12.2846 15.8854 15.266 19.17 16.8325C18.5636 18.7022 16.4413 22.8458 13.9652 22.8458C12.5503 22.8458 11.7418 21.9362 10.1248 21.9362C8.45727 21.9362 7.5477 22.8458 6.2844 22.8458C3.85887 22.9469 1.5344 18.399 0.877491 16.5293C0.372172 15.1144 0.170044 13.7501 0.170044 12.4362C0.170044 7.9389 3.15142 5.76603 5.98121 5.7155C7.34557 5.7155 9.06366 6.6756 9.82164 6.6756C10.529 6.6756 12.4998 5.51337 14.3189 5.66496C16.1886 5.81656 17.6035 6.52401 18.5636 7.88837C16.8961 8.94954 16.037 10.3139 16.037 12.1836ZM13.2072 3.89635C12.1966 5.05858 10.9838 5.7155 9.67004 5.61443C9.56898 4.25007 10.0743 2.98677 10.9838 1.97613C11.7923 1.06656 13.2072 0.308583 14.42 0.20752C14.42 0.763372 14.5716 2.27933 13.2072 3.89635Z" fill="white"/>
</svg>
