<svg width="26" height="27" viewBox="0 0 26 27" fill="none" xmlns="http://www.w3.org/2000/svg">
<g clip-path="url(#clip0_1_17)" filter="url(#filter0_d_1_17)">
<path d="M13.01 12.69C13.13 12.69 13.22 12.66 13.28 12.6C13.34 12.54 13.37 12.45 13.37 12.33V10.71C13.37 10.55 13.31 10.44 13.19 10.38C13.07 10.32 12.95 10.32 12.83 10.38C12.71 10.44 12.65 10.55 12.65 10.71V12.33C12.65 12.45 12.69 12.54 12.77 12.6C12.85 12.66 12.93 12.69 13.01 12.69ZM13.01 5.31002C13.13 5.31002 13.22 5.28002 13.28 5.22002C13.34 5.16002 13.37 5.09002 13.37 5.01002V3.33002C13.37 3.21002 13.31 3.12002 13.19 3.06002C13.07 3.00002 12.95 3.00002 12.83 3.06002C12.71 3.12002 12.65 3.21002 12.65 3.33002V5.01002C12.65 5.09002 12.69 5.16002 12.77 5.22002C12.85 5.28002 12.93 5.31002 13.01 5.31002ZM13.01 9.03002C13.13 9.03002 13.22 8.99002 13.28 8.91002C13.34 8.83002 13.37 8.75002 13.37 8.67002V7.05002C13.37 6.93002 13.34 6.84002 13.28 6.78002C13.22 6.72002 13.14 6.69002 13.04 6.69002C12.94 6.69002 12.85 6.72002 12.77 6.78002C12.69 6.84002 12.65 6.93002 12.65 7.05002V8.67002C12.65 8.75002 12.69 8.83002 12.77 8.91002C12.85 8.99002 12.93 9.03002 13.01 9.03002ZM15.47 5.31002C15.55 5.31002 15.63 5.28002 15.71 5.22002C15.79 5.16002 15.83 5.09002 15.83 5.01002V3.33002C15.83 3.25002 15.79 3.17002 15.71 3.09002C15.63 3.01002 15.55 2.97002 15.47 2.97002C15.39 2.97002 15.31 3.01002 15.23 3.09002C15.15 3.17002 15.11 3.25002 15.11 3.33002V5.01002C15.11 5.09002 15.15 5.16002 15.23 5.22002C15.31 5.28002 15.39 5.31002 15.47 5.31002ZM15.47 9.03002C15.55 9.03002 15.63 8.99002 15.71 8.91002C15.79 8.83002 15.83 8.75002 15.83 8.67002V7.05002C15.83 6.93002 15.79 6.84002 15.71 6.78002C15.63 6.72002 15.55 6.69002 15.47 6.69002C15.39 6.69002 15.31 6.72002 15.23 6.78002C15.15 6.84002 15.11 6.93002 15.11 7.05002V8.67002C15.11 8.75002 15.15 8.83002 15.23 8.91002C15.31 8.99002 15.39 9.03002 15.47 9.03002ZM15.47 12.69C15.55 12.69 15.63 12.66 15.71 12.6C15.79 12.54 15.83 12.45 15.83 12.33V10.71C15.83 10.59 15.79 10.5 15.71 10.44C15.63 10.38 15.55 10.35 15.47 10.35C15.39 10.35 15.31 10.38 15.23 10.44C15.15 10.5 15.11 10.59 15.11 10.71V12.33C15.11 12.45 15.15 12.54 15.23 12.6C15.31 12.66 15.39 12.69 15.47 12.69ZM19.55 14.01H19.85C19.93 14.01 20 13.98 20.06 13.92C20.12 13.86 20.15 13.78 20.15 13.68C20.15 13.58 20.12 13.5 20.06 13.44C20 13.38 19.93 13.35 19.85 13.35H19.55C19.43 13.35 19.34 13.38 19.28 13.44C19.22 13.5 19.19 13.58 19.19 13.68C19.19 13.78 19.22 13.86 19.28 13.92C19.34 13.98 19.43 14.01 19.55 14.01ZM19.55 12.03H19.85C19.93 12.03 20 12 20.06 11.94C20.12 11.88 20.15 11.8 20.15 11.7C20.15 11.6 20.12 11.51 20.06 11.43C20 11.35 19.93 11.31 19.85 11.31H19.55C19.43 11.31 19.34 11.35 19.28 11.43C19.22 11.51 19.19 11.6 19.19 11.7C19.19 11.8 19.22 11.88 19.28 11.94C19.34 12 19.43 12.03 19.55 12.03ZM19.55 15.99H19.85C19.93 15.99 20 15.95 20.06 15.87C20.12 15.79 20.15 15.71 20.15 15.63C20.15 15.55 20.12 15.47 20.06 15.39C20 15.31 19.93 15.27 19.85 15.27H19.55C19.43 15.27 19.34 15.31 19.28 15.39C19.22 15.47 19.19 15.55 19.19 15.63C19.19 15.71 19.22 15.79 19.28 15.87C19.34 15.95 19.43 15.99 19.55 15.99ZM8.87 10.05H9.17C9.25 10.05 9.32 10.02 9.38 9.96002C9.44 9.90002 9.47 9.82002 9.47 9.72002C9.47 9.62002 9.44 9.54002 9.38 9.48002C9.32 9.42002 9.25 9.39002 9.17 9.39002H8.87C8.75 9.39002 8.66 9.42002 8.6 9.48002C8.54 9.54002 8.51 9.62002 8.51 9.72002C8.51 9.82002 8.54 9.90002 8.6 9.96002C8.66 10.02 8.75 10.05 8.87 10.05ZM8.87 8.07002H9.17C9.25 8.07002 9.32 8.04002 9.38 7.98002C9.44 7.92002 9.47 7.84002 9.47 7.74002C9.47 7.64002 9.44 7.56002 9.38 7.50002C9.32 7.44002 9.25 7.41002 9.17 7.41002H8.87C8.75 7.41002 8.66 7.44002 8.6 7.50002C8.54 7.56002 8.51 7.64002 8.51 7.74002C8.51 7.84002 8.54 7.92002 8.6 7.98002C8.66 8.04002 8.75 8.07002 8.87 8.07002ZM8.87 12.03H9.17C9.25 12.03 9.32 12 9.38 11.94C9.44 11.88 9.47 11.8 9.47 11.7C9.47 11.6 9.44 11.51 9.38 11.43C9.32 11.35 9.25 11.31 9.17 11.31H8.87C8.71 11.31 8.6 11.37 8.54 11.49C8.48 11.61 8.48 11.73 8.54 11.85C8.6 11.97 8.71 12.03 8.87 12.03ZM21.47 8.49002H18.23V1.05002C18.23 0.930017 18.2 0.840017 18.14 0.780017C18.08 0.720017 17.99 0.690017 17.87 0.690017H10.61C10.53 0.690017 10.45 0.730017 10.37 0.810017C10.29 0.890017 10.25 0.970017 10.25 1.05002V5.37002H7.37C7.29 5.37002 7.21 5.40002 7.13 5.46002C7.05 5.52002 7.01 5.61002 7.01 5.73002V9.99002C7.01 10.11 7.05 10.2 7.13 10.26C7.21 10.32 7.3 10.35 7.4 10.35C7.5 10.35 7.58 10.32 7.64 10.26C7.7 10.2 7.73 10.11 7.73 9.99002V6.03002H10.25V17.61H7.73C7.61 17.61 7.52 17.65 7.46 17.73C7.4 17.81 7.37 17.9 7.37 18C7.37 18.1 7.4 18.18 7.46 18.24C7.52 18.3 7.61 18.33 7.73 18.33H20.27C20.71 18.33 21.08 18.18 21.38 17.88C21.68 17.58 21.83 17.23 21.83 16.83V8.85002C21.83 8.77002 21.79 8.69002 21.71 8.61002C21.63 8.53002 21.55 8.49002 21.47 8.49002ZM13.37 17.61V14.91H15.11V17.61H13.37ZM17.51 17.61H15.83V14.55C15.83 14.43 15.79 14.34 15.71 14.28C15.63 14.22 15.55 14.19 15.47 14.19H13.01C12.93 14.19 12.85 14.22 12.77 14.28C12.69 14.34 12.65 14.43 12.65 14.55V17.61H10.97V1.35002H17.51V17.61ZM21.11 16.83C21.11 17.03 21.03 17.22 20.87 17.4C20.71 17.58 20.51 17.67 20.27 17.67H18.23V9.21002H21.11V16.83ZM8.33 13.53C8.33 12.93 8.03 12.35 7.43 11.79C7.11 11.47 6.77 11.21 6.41 11.01C6.33 10.97 6.23 10.97 6.11 11.01C5.79 11.21 5.45 11.47 5.09 11.79C4.49 12.35 4.19 12.94 4.19 13.56C4.19 14.18 4.35 14.73 4.67 15.21C4.99 15.69 5.41 15.97 5.93 16.05V17.97C5.93 18.09 5.96 18.18 6.02 18.24C6.08 18.3 6.16 18.33 6.26 18.33C6.36 18.33 6.44 18.3 6.5 18.24C6.56 18.18 6.59 18.09 6.59 17.97V16.05C7.11 15.97 7.53 15.69 7.85 15.21C8.17 14.73 8.33 14.17 8.33 13.53ZM4.85 13.53C4.85 13.21 5.03 12.85 5.39 12.45C5.63 12.21 5.93 11.97 6.29 11.73C6.61 11.97 6.89 12.21 7.13 12.45C7.49 12.85 7.67 13.21 7.67 13.53C7.67 13.97 7.57 14.36 7.37 14.7C7.17 15.04 6.91 15.25 6.59 15.33V14.55C6.59 14.43 6.56 14.34 6.5 14.28C6.44 14.22 6.36 14.19 6.26 14.19C6.16 14.19 6.08 14.22 6.02 14.28C5.96 14.34 5.93 14.43 5.93 14.55V15.33C5.61 15.25 5.35 15.04 5.15 14.7C4.95 14.36 4.85 13.97 4.85 13.53Z" fill="#1A1A1A"/>
</g>
<defs>
<filter id="filter0_d_1_17" x="-0.0499878" y="0.390015" width="26" height="26" filterUnits="userSpaceOnUse" color-interpolation-filters="sRGB">
<feFlood flood-opacity="0" result="BackgroundImageFix"/>
<feColorMatrix in="SourceAlpha" type="matrix" values="0 0 0 0 0 0 0 0 0 0 0 0 0 0 0 0 0 0 127 0" result="hardAlpha"/>
<feOffset dy="4"/>
<feGaussianBlur stdDeviation="2"/>
<feComposite in2="hardAlpha" operator="out"/>
<feColorMatrix type="matrix" values="0 0 0 0 0 0 0 0 0 0 0 0 0 0 0 0 0 0 0.25 0"/>
<feBlend mode="normal" in2="BackgroundImageFix" result="effect1_dropShadow_1_17"/>
<feBlend mode="normal" in="SourceGraphic" in2="effect1_dropShadow_1_17" result="shape"/>
</filter>
<clipPath id="clip0_1_17">
<rect width="18" height="18" fill="white" transform="matrix(1 0 0 -1 3.95001 18.39)"/>
</clipPath>
</defs>
</svg>
