<svg width="14" height="12" viewBox="0 0 14 12" fill="none" xmlns="http://www.w3.org/2000/svg">
<path d="M0.8125 5.07509H12.0341L7.73716 0.982339C7.51216 0.768026 7.50344 0.411963 7.71775 0.186963C7.93178 -0.0377556 8.28784 -0.0467556 8.51312 0.167557L13.4204 4.84193C13.6327 5.05456 13.75 5.33693 13.75 5.63759C13.75 5.93796 13.6327 6.22062 13.4105 6.44253L8.51284 11.1073C8.404 11.2111 8.2645 11.2626 8.125 11.2626C7.9765 11.2626 7.828 11.2041 7.71747 11.0879C7.50316 10.8629 7.51188 10.5071 7.73688 10.2928L12.0518 6.20009H0.8125C0.502 6.20009 0.25 5.94809 0.25 5.63759C0.25 5.32709 0.502 5.07509 0.8125 5.07509Z" fill="white"/>
</svg>
