<svg width="36" height="36" viewBox="0 0 36 36" fill="none" xmlns="http://www.w3.org/2000/svg">
<g clip-path="url(#clip0_1_144)">
<path d="M18.2499 32.4067H7.39994C6.77772 32.4067 6.27217 32.1928 5.88328 31.765C5.49439 31.3372 5.29994 30.8511 5.29994 30.3067V15.7233L16.2666 6.03998C16.8111 5.57332 17.4722 5.33998 18.2499 5.33998C19.0277 5.33998 19.6888 5.57332 20.2333 6.03998L34.1166 18.29C34.2722 18.4455 34.4666 18.5039 34.6999 18.465C34.9333 18.4261 35.1277 18.3289 35.2833 18.1733C35.4388 18.0178 35.4972 17.8233 35.4583 17.59C35.4194 17.3567 35.3222 17.1622 35.1666 17.0067L32.8333 15.0233V6.73998C32.8333 5.57332 32.4055 4.56221 31.5499 3.70665C30.6944 2.8511 29.6833 2.44276 28.5166 2.48165C27.3499 2.52054 26.3583 2.94832 25.5416 3.76498C24.7249 4.58165 24.2777 5.57332 24.1999 6.73998V7.43999L21.2833 4.87332C20.4277 4.09554 19.4166 3.70665 18.2499 3.70665C17.0833 3.70665 16.0722 4.09554 15.2166 4.87332L1.33328 17.0067C1.09994 17.1622 0.983276 17.3567 0.983276 17.59C0.983276 17.8233 1.06105 18.0178 1.21661 18.1733C1.37217 18.3289 1.56661 18.4261 1.79994 18.465C2.03328 18.5039 2.22772 18.4455 2.38328 18.29L3.66661 17.24V30.3067C3.66661 31.3178 4.03605 32.1928 4.77494 32.9317C5.51383 33.6705 6.38883 34.04 7.39994 34.04H18.2499C18.4833 34.04 18.6777 33.9622 18.8333 33.8067C18.9888 33.6511 19.0666 33.4567 19.0666 33.2233C19.0666 32.99 18.9888 32.7955 18.8333 32.64C18.6777 32.4844 18.4833 32.4067 18.2499 32.4067ZM25.8333 6.73998C25.9111 5.96221 26.2027 5.32054 26.7083 4.81499C27.2138 4.30943 27.8361 4.0761 28.5749 4.11498C29.3138 4.15387 29.9361 4.4261 30.4416 4.93165C30.9472 5.43721 31.1999 6.03998 31.1999 6.73998V13.5067L25.8333 8.83998V6.73998ZM18.2499 10.7067C17.1611 10.7067 16.2277 11.0955 15.4499 11.8733C14.6722 12.6511 14.2833 13.5844 14.2833 14.6733C14.2833 15.7622 14.6722 16.6955 15.4499 17.4733C16.2277 18.2511 17.1611 18.64 18.2499 18.64C19.3388 18.64 20.2722 18.2511 21.0499 17.4733C21.8277 16.6955 22.2166 15.7622 22.2166 14.6733C22.2166 13.5844 21.8277 12.6511 21.0499 11.8733C20.2722 11.0955 19.3388 10.7067 18.2499 10.7067ZM20.5833 14.6733C20.5833 15.3733 20.3499 15.9372 19.8833 16.365C19.4166 16.7928 18.8722 17.0067 18.2499 17.0067C17.6277 17.0067 17.0833 16.7928 16.6166 16.365C16.1499 15.9372 15.9166 15.3928 15.9166 14.7317C15.9166 14.0705 16.1499 13.5067 16.6166 13.04C17.0833 12.5733 17.6277 12.34 18.2499 12.34C18.8722 12.34 19.4166 12.5733 19.8833 13.04C20.3499 13.5067 20.5833 14.0511 20.5833 14.6733ZM35.2833 32.7567L32.4833 29.84C33.1833 28.8289 33.5333 27.7011 33.5333 26.4567C33.5333 24.9011 32.9694 23.5789 31.8416 22.49C30.7138 21.4011 29.3722 20.8567 27.8166 20.8567C26.2611 20.8567 24.9194 21.4011 23.7916 22.49C22.6638 23.5789 22.0999 24.9205 22.0999 26.515C22.0999 28.1094 22.6638 29.4511 23.7916 30.54C24.9194 31.6289 26.2611 32.1733 27.8166 32.1733C29.1388 32.1733 30.3055 31.7844 31.3166 31.0067L33.9999 33.8067C34.1555 33.9622 34.3499 34.0594 34.5833 34.0983C34.8166 34.1372 35.0305 34.0789 35.2249 33.9233C35.4194 33.7678 35.5166 33.5733 35.5166 33.34C35.5166 33.1067 35.4388 32.9122 35.2833 32.7567ZM27.8166 30.54C26.7277 30.54 25.7749 30.1511 24.9583 29.3733C24.1416 28.5955 23.7333 27.6428 23.7333 26.515C23.7333 25.3872 24.1416 24.4344 24.9583 23.6567C25.7749 22.8789 26.7472 22.49 27.8749 22.49C29.0027 22.49 29.9555 22.8789 30.7333 23.6567C31.5111 24.4344 31.8999 25.3872 31.8999 26.515C31.8999 27.6428 31.5111 28.5955 30.7333 29.3733C29.9555 30.1511 28.9833 30.54 27.8166 30.54Z" fill="#1A1A1A"/>
</g>
<defs>
<clipPath id="clip0_1_144">
<rect width="35" height="35" fill="white" transform="matrix(1 0 0 -1 0.75 35.79)"/>
</clipPath>
</defs>
</svg>
