<svg width="36" height="36" viewBox="0 0 36 36" fill="none" xmlns="http://www.w3.org/2000/svg">
<g clip-path="url(#clip0_1_152)">
<path d="M19.1833 21.3935C18.95 21.3935 18.7556 21.3157 18.6 21.1602C17.5889 20.2268 17.1222 19.099 17.2 17.7768C17.2 16.7657 17.4333 15.8324 17.9 14.9768C17.9778 14.7435 18.1139 14.6074 18.3083 14.5685C18.5028 14.5296 18.6972 14.5685 18.8917 14.6852C19.0861 14.8018 19.2028 14.9574 19.2417 15.1518C19.2806 15.3463 19.2611 15.5213 19.1833 15.6768C18.8722 16.0657 18.6778 16.6102 18.6 17.3102C18.4445 18.399 18.7945 19.3324 19.65 20.1102C19.8833 20.3435 19.9417 20.6157 19.825 20.9268C19.7083 21.2379 19.4556 21.3935 19.0667 21.3935H19.1833ZM6.23334 24.5435C5.37779 24.4657 4.6389 24.1157 4.01667 23.4935C3.31667 22.7935 2.96667 21.9185 2.96667 20.8685C2.96667 19.8185 3.31667 18.9435 4.01667 18.2435L11.3667 10.7768C11.6778 10.5435 11.95 10.349 12.1833 10.1935C12.4167 10.0379 12.6306 9.99904 12.825 10.0768C13.0195 10.1546 13.1556 10.2713 13.2333 10.4268C13.3111 10.5824 13.3306 10.7574 13.2917 10.9518C13.2528 11.1463 13.1361 11.3018 12.9417 11.4185C12.7472 11.5352 12.5722 11.6713 12.4167 11.8268L5.06667 19.2935C4.60001 19.6824 4.36667 20.2074 4.36667 20.8685C4.36667 21.5296 4.60001 22.0546 5.06667 22.4435C5.30001 22.7546 5.61112 22.949 6.00001 23.0268L8.21667 20.8102C8.37223 20.6546 8.56667 20.5768 8.80001 20.5768L9.85001 20.8102L10.4333 20.2268V18.3602C10.4333 18.2046 10.5111 18.049 10.6667 17.8935C10.8222 17.7379 10.9778 17.6602 11.1333 17.6602L13.1167 17.5435L15.6833 14.9768L15.9167 14.7435C15.9945 14.5879 16.1306 14.4907 16.325 14.4518C16.5195 14.4129 16.7139 14.4518 16.9083 14.5685C17.1028 14.6852 17.2195 14.8407 17.2583 15.0352C17.2972 15.2296 17.2389 15.4046 17.0833 15.5602L16.7333 16.0268L13.9333 18.8268C13.7778 18.9824 13.6222 19.0602 13.4667 19.0602H11.95V20.5768C11.95 20.8102 11.8722 20.9657 11.7167 21.0435L10.6667 22.2102C10.5111 22.3657 10.3167 22.4046 10.0833 22.3268L9.03334 22.2102L6.81667 24.4268C6.66112 24.5046 6.46667 24.5435 6.23334 24.5435ZM19.4167 16.1435C18.0167 16.1435 16.7139 15.8324 15.5083 15.2102C14.3028 14.5879 13.3111 13.7129 12.5333 12.5852C11.7556 11.4574 11.3083 10.1935 11.1917 8.79349C11.075 7.39349 11.2889 6.07127 11.8333 4.82682C12.3778 3.58238 13.1945 2.55182 14.2833 1.73516C15.3722 0.918488 16.6167 0.39349 18.0167 0.160156C18.25 0.0823784 18.4639 0.160156 18.6583 0.39349C18.8528 0.626823 18.9111 0.879601 18.8333 1.15182C18.7556 1.42405 18.5611 1.59904 18.25 1.67682C16.5389 1.91016 15.1583 2.72682 14.1083 4.12682C13.0583 5.52682 12.65 7.10182 12.8833 8.85182C13.1167 10.6018 13.8945 12.0213 15.2167 13.1102C16.5389 14.199 18.0556 14.7046 19.7667 14.6268C21.4778 14.549 22.9361 13.8685 24.1417 12.5852C25.3472 11.3018 25.95 9.8046 25.95 8.09349C25.95 7.0046 25.7167 5.99349 25.25 5.06016C24.7833 4.12682 24.0833 3.34904 23.15 2.72682C22.9945 2.57127 22.9167 2.39627 22.9167 2.20182C22.9167 2.00738 22.975 1.83238 23.0917 1.67682C23.2083 1.52127 23.3639 1.42405 23.5583 1.38515C23.7528 1.34627 23.9278 1.4046 24.0833 1.56016C25.4833 2.57127 26.475 3.89349 27.0583 5.52682C27.6417 7.16016 27.6611 8.81293 27.1167 10.4852C26.5722 12.1574 25.6 13.5185 24.2 14.5685C22.8 15.6185 21.2056 16.1435 19.4167 16.1435ZM21.05 1.67682C20.9722 1.67682 20.875 1.65738 20.7583 1.61849C20.6417 1.5796 20.525 1.48238 20.4083 1.32682C20.2917 1.17127 20.2528 0.976822 20.2917 0.743488C20.3306 0.510155 20.4861 0.335155 20.7583 0.218491C21.0306 0.101822 21.2833 0.140713 21.5167 0.335155C21.75 0.529602 21.8278 0.743488 21.75 0.976822C21.6722 1.21016 21.575 1.38515 21.4583 1.50182C21.3417 1.61849 21.1667 1.67682 20.9333 1.67682H21.05ZM20.4667 9.49349C19.6111 9.49349 18.9111 9.22127 18.3667 8.67682C17.8222 8.13238 17.55 7.45182 17.55 6.63516C17.55 5.81849 17.8222 5.11849 18.3667 4.53516C18.9111 3.95182 19.5917 3.66016 20.4083 3.66016C21.225 3.66016 21.925 3.95182 22.5083 4.53516C23.0917 5.11849 23.3833 5.81849 23.3833 6.63516C23.3833 7.45182 23.0917 8.13238 22.5083 8.67682C21.925 9.22127 21.2445 9.49349 20.4667 9.49349ZM20.4667 5.17682C20.0778 5.17682 19.7278 5.31293 19.4167 5.58516C19.1056 5.85738 18.95 6.18793 18.95 6.57682C18.95 6.96571 19.1056 7.31571 19.4167 7.62682C19.7278 7.93793 20.0778 8.09349 20.4667 8.09349C20.8556 8.09349 21.1861 7.93793 21.4583 7.62682C21.7306 7.31571 21.8667 6.96571 21.8667 6.57682C21.8667 6.18793 21.7306 5.85738 21.4583 5.58516C21.1861 5.31293 20.8556 5.17682 20.4667 5.17682ZM29.9167 35.1602C29.7611 35.1602 29.6056 35.0824 29.45 34.9268C29.2945 34.7713 29.2167 34.6157 29.2167 34.4602V26.1768V25.8268C29.1389 25.5935 29.1778 25.3796 29.3333 25.1852C29.4889 24.9907 29.6833 24.9324 29.9167 25.0102H30.7333L22.9167 18.5935L14.9833 24.8935H15.8C16.1111 24.8935 16.325 24.9907 16.4417 25.1852C16.5583 25.3796 16.6167 25.5935 16.6167 25.8268L16.5 26.1768V34.4602C16.5 34.6157 16.4417 34.7713 16.325 34.9268C16.2083 35.0824 16.0333 35.1602 15.8 35.1602C15.5667 35.1602 15.3917 35.0824 15.275 34.9268C15.1583 34.7713 15.1 34.6157 15.1 34.4602V26.4102H12.8833C12.5722 26.4102 12.3583 26.2546 12.2417 25.9435C12.125 25.6324 12.1833 25.3602 12.4167 25.1268L22.45 17.0768C22.5278 16.999 22.6639 16.9602 22.8583 16.9602C23.0528 16.9602 23.2278 16.999 23.3833 17.0768L33.3 25.1268C33.5333 25.3602 33.5917 25.6324 33.475 25.9435C33.3583 26.2546 33.1445 26.4102 32.8333 26.4102H30.7333V34.4602C30.7333 34.6157 30.6556 34.7713 30.5 34.9268C30.3445 35.0824 30.15 35.1602 29.9167 35.1602ZM22.9167 23.6102C22.7611 23.6102 22.6056 23.5324 22.45 23.3768C22.2945 23.2213 22.2167 23.0463 22.2167 22.8518C22.2167 22.6574 22.2945 22.4824 22.45 22.3268C25.0945 19.9935 26.3 17.6213 26.0667 15.2102C25.8333 13.2657 24.7833 11.3602 22.9167 9.49349C21.9833 8.56016 21.05 7.82127 20.1167 7.27682C19.8056 7.12127 19.65 6.88793 19.65 6.57682C19.65 6.26571 19.7861 6.05182 20.0583 5.93516C20.3306 5.81849 20.5833 5.83793 20.8167 5.99349C21.9056 6.61571 22.9556 7.47127 23.9667 8.56016C26.0667 10.6602 27.2333 12.799 27.4667 14.9768C27.7778 17.9324 26.4167 20.7713 23.3833 23.4935C23.3056 23.5713 23.15 23.6102 22.9167 23.6102ZM24.7833 34.9268C24.6278 34.9268 24.4722 34.8685 24.3167 34.7518C24.1611 34.6352 24.0833 34.4602 24.0833 34.2268V29.7935C24.0833 29.4824 23.9861 29.2296 23.7917 29.0352C23.5972 28.8407 23.3445 28.7435 23.0333 28.7435H22.2167C21.9056 28.7435 21.6528 28.8407 21.4583 29.0352C21.2639 29.2296 21.1667 29.4824 21.1667 29.7935V34.2268C21.1667 34.4602 21.0889 34.6352 20.9333 34.7518C20.7778 34.8685 20.6028 34.9268 20.4083 34.9268C20.2139 34.9268 20.0389 34.8685 19.8833 34.7518C19.7278 34.6352 19.65 34.4602 19.65 34.2268V29.7935C19.65 29.0935 19.9028 28.4907 20.4083 27.9852C20.9139 27.4796 21.5167 27.2268 22.2167 27.2268H23.0333C23.7333 27.2268 24.3361 27.4796 24.8417 27.9852C25.3472 28.4907 25.5611 29.0935 25.4833 29.7935V34.2268C25.5611 34.4602 25.5222 34.6352 25.3667 34.7518C25.2111 34.8685 25.0167 34.9268 24.7833 34.9268Z" fill="#1A1A1A"/>
</g>
<defs>
<clipPath id="clip0_1_152">
<rect width="35" height="35" fill="white" transform="matrix(1 0 0 -1 0.75 35.1602)"/>
</clipPath>
</defs>
</svg>
