<svg width="21" height="21" viewBox="0 0 21 21" fill="none" xmlns="http://www.w3.org/2000/svg">
<g clip-path="url(#clip0_1_182)">
<path d="M15.35 20.38C13.5277 20.38 11.75 20.0467 10.0166 19.38C8.1944 18.6689 6.58328 17.6022 5.18328 16.18C3.78328 14.7578 2.70551 13.1356 1.94995 11.3133C1.28328 9.58 0.949951 7.80223 0.949951 5.98C0.949951 4.95778 1.20551 4.02445 1.71662 3.18C2.22773 2.33556 2.90551 1.65778 3.74995 1.14667C4.5944 0.635559 5.52773 0.380004 6.54995 0.380004C6.81662 0.380004 6.9944 0.513337 7.08328 0.780004L9.61662 7.04667C9.66106 7.18 9.64995 7.32445 9.58328 7.48C9.51662 7.63556 9.41662 7.73556 9.28328 7.78L6.54995 8.91334C6.5944 9.93556 6.88328 10.8911 7.41662 11.78C7.94995 12.6689 8.66106 13.38 9.54995 13.9133C10.4388 14.4467 11.3944 14.7356 12.4166 14.78L13.55 12.0467C13.5944 11.9133 13.6944 11.8133 13.85 11.7467C14.0055 11.68 14.15 11.6689 14.2833 11.7133L20.55 14.2467C20.8166 14.3356 20.95 14.5133 20.95 14.78C20.95 15.8022 20.6944 16.7356 20.1833 17.58C19.6722 18.4244 18.9944 19.1022 18.15 19.6133C17.3055 20.1244 16.3722 20.38 15.35 20.38ZM6.14995 1.58C5.03884 1.66889 4.0944 2.13556 3.31662 2.98C2.53884 3.82445 2.14995 4.82445 2.14995 5.98C2.14995 7.75778 2.48328 9.44667 3.14995 11.0467C3.81662 12.6467 4.77217 14.0689 6.01662 15.3133C7.26106 16.5578 8.68328 17.5133 10.2833 18.18C11.8833 18.8467 13.5722 19.18 15.35 19.18C16.5055 19.18 17.5055 18.7911 18.35 18.0133C19.1944 17.2356 19.6611 16.2911 19.75 15.18L14.4166 13.0467L13.35 15.6467C13.2611 15.8689 13.0833 15.98 12.8166 15.98C11.4833 15.98 10.2388 15.6467 9.08328 14.98C7.92773 14.3133 7.01662 13.4022 6.34995 12.2467C5.68328 11.0911 5.34995 9.84667 5.34995 8.51334C5.34995 8.24667 5.46106 8.06889 5.68328 7.98L8.28328 6.91334L6.14995 1.58Z" fill="#1A1A1A"/>
</g>
<defs>
<clipPath id="clip0_1_182">
<rect width="20" height="20" fill="white" transform="matrix(1 0 0 -1 0.949951 20.38)"/>
</clipPath>
</defs>
</svg>
