<svg width="17" height="17" viewBox="0 0 17 17" fill="none" xmlns="http://www.w3.org/2000/svg">
<g clip-path="url(#clip0_1_186)">
<path d="M8.69501 8.61333C9.76168 8.61333 10.6683 8.23111 11.415 7.46666C12.1617 6.70222 12.535 5.78666 12.535 4.72C12.535 3.65333 12.1617 2.74666 11.415 2C10.6683 1.25333 9.76168 0.879997 8.69501 0.879997C7.62834 0.879997 6.72168 1.25333 5.97501 2C5.22834 2.74666 4.85501 3.65333 4.85501 4.72C4.85501 5.78666 5.22834 6.70222 5.97501 7.46666C6.72168 8.23111 7.62834 8.61333 8.69501 8.61333ZM6.61501 2.69333C7.1839 2.12444 7.86834 1.84 8.66834 1.84C9.46834 1.84 10.1617 2.12444 10.7483 2.69333C11.335 3.26222 11.6283 3.94666 11.6283 4.74666C11.6283 5.54666 11.3439 6.23111 10.775 6.8C10.2061 7.36889 9.51279 7.65333 8.69501 7.65333C7.87723 7.65333 7.1839 7.36889 6.61501 6.8C6.04612 6.23111 5.76168 5.54666 5.76168 4.74666C5.76168 3.94666 6.04612 3.26222 6.61501 2.69333ZM15.415 13.2C15.415 12.88 15.3795 12.5333 15.3083 12.16C15.2372 11.7867 15.1483 11.4489 15.0417 11.1467C14.935 10.8444 14.7928 10.5333 14.615 10.2133C14.4372 9.89333 14.2328 9.61777 14.0017 9.38666C13.7706 9.15555 13.4772 8.96889 13.1217 8.82666C12.7661 8.68444 12.375 8.61333 11.9483 8.61333C11.8061 8.61333 11.5928 8.70222 11.3083 8.88L10.6683 9.30666C10.455 9.44889 10.1706 9.57333 9.81501 9.68C9.45945 9.78666 9.11279 9.84 8.77501 9.84C8.43723 9.84 8.09057 9.78666 7.73501 9.68C7.37945 9.57333 7.11279 9.44889 6.93501 9.30666L6.24168 8.88C5.99279 8.70222 5.79723 8.61333 5.65501 8.61333C5.22834 8.61333 4.83723 8.68444 4.48168 8.82666C4.12612 8.96889 3.8239 9.15555 3.57501 9.38666C3.32612 9.61777 3.11279 9.89333 2.93501 10.2133C2.75723 10.5333 2.61501 10.8533 2.50834 11.1733C2.40168 11.4933 2.32168 11.8311 2.26834 12.1867C2.21501 12.5422 2.17945 12.8711 2.16168 13.1733C2.1439 13.4756 2.13501 13.7867 2.13501 14.1067C2.13501 14.96 2.39279 15.6356 2.90834 16.1333C3.4239 16.6311 4.10834 16.88 4.96168 16.88H12.6417C13.4595 16.88 14.135 16.6311 14.6683 16.1333C15.2017 15.6356 15.4683 14.96 15.4683 14.1067C15.4683 13.7867 15.4506 13.4844 15.415 13.2ZM14.0283 15.44C13.6728 15.76 13.2106 15.92 12.6417 15.92H4.96168C4.35723 15.92 3.88612 15.76 3.54834 15.44C3.21057 15.12 3.04168 14.6756 3.04168 14.1067L3.09501 13.2533C3.09501 12.9689 3.13057 12.6667 3.20168 12.3467C3.27279 12.0267 3.3439 11.7333 3.41501 11.4667C3.48612 11.2 3.59279 10.9422 3.73501 10.6933C3.87723 10.4444 4.03723 10.24 4.21501 10.08C4.39279 9.92 4.59723 9.79555 4.82834 9.70666C5.05945 9.61777 5.29945 9.57333 5.54834 9.57333L6.40168 10.1067C6.68612 10.2844 7.04168 10.4356 7.46834 10.56C7.89501 10.6844 8.33057 10.7467 8.77501 10.7467C9.21945 10.7467 9.6639 10.6844 10.1083 10.56C10.5528 10.4356 10.8995 10.2844 11.1483 10.1067L12.0017 9.57333C12.2861 9.57333 12.5439 9.61777 12.775 9.70666C13.0061 9.79555 13.2017 9.92 13.3617 10.08C13.5217 10.24 13.6728 10.4444 13.815 10.6933C13.9572 10.9422 14.0728 11.2 14.1617 11.4667C14.2506 11.7333 14.3217 12.0267 14.375 12.3467C14.4283 12.6667 14.4728 12.9689 14.5083 13.2533V14.1067C14.5083 14.6756 14.3483 15.12 14.0283 15.44Z" fill="#1A1A1A"/>
</g>
<defs>
<clipPath id="clip0_1_186">
<rect width="15.95" height="16" fill="white" transform="matrix(1 0 0 -1 0.800049 16.88)"/>
</clipPath>
</defs>
</svg>
