<svg width="61" height="61" viewBox="0 0 61 61" fill="none" xmlns="http://www.w3.org/2000/svg">
<g clip-path="url(#clip0_1_35)">
<path d="M59.33 43.6999L57.5303 42.0999V35.0999C57.5303 33.8999 57.0971 32.8666 56.2306 31.9999C55.364 31.1332 54.3642 30.6999 53.2311 30.6999C52.0979 30.6999 51.1314 31.0332 50.3315 31.6999C49.5317 32.3666 48.9984 33.2332 48.7318 34.2999L47.1321 32.8999C46.3322 32.0999 45.3324 31.6999 44.1326 31.6999C42.9328 31.6999 41.8663 32.0999 40.9331 32.8999L28.7351 43.6999C28.4685 43.9666 28.3352 44.2999 28.3352 44.6999C28.3352 45.0999 28.4352 45.4332 28.6352 45.6999C28.8351 45.9666 29.1351 46.0999 29.535 46.0999C29.9349 46.0999 30.2682 46.0332 30.5348 45.8999V55.6999C30.5348 56.8999 30.9348 57.8999 31.7346 58.6999C32.5345 59.4999 33.4677 59.8999 34.5342 59.8999H53.531C54.7308 59.8999 55.6973 59.4999 56.4305 58.6999C57.1637 57.8999 57.5303 56.8999 57.5303 55.6999V45.8999C57.9303 46.0332 58.2969 46.0999 58.6302 46.0999C58.9634 46.0999 59.2634 45.9332 59.53 45.5999C59.7966 45.2666 59.8966 44.9332 59.83 44.5999C59.7633 44.2666 59.5967 43.9666 59.33 43.6999ZM46.5322 57.0999H41.9329V53.6999C41.9329 53.1666 42.1329 52.6999 42.5328 52.2999C42.9328 51.8999 43.3994 51.6999 43.9326 51.6999H44.5325C45.0658 51.6999 45.5323 51.8999 45.9323 52.2999C46.3322 52.6999 46.5322 53.1666 46.5322 53.6999V57.0999ZM54.7308 55.6999C54.7308 56.0999 54.6308 56.4332 54.4309 56.6999C54.2309 56.9666 53.9309 57.0999 53.531 57.0999H49.3317V53.6999C49.3317 52.3666 48.8651 51.2332 47.9319 50.2999C46.9988 49.3666 45.8656 48.8999 44.5325 48.8999H43.9326C42.5995 48.8999 41.4664 49.3666 40.5332 50.2999C39.6 51.2332 39.1334 52.3666 39.1334 53.6999V57.0999H34.5342C34.2676 57.0999 34.0009 56.9666 33.7343 56.6999C33.4677 56.4332 33.3344 56.0999 33.3344 55.6999V43.2999L42.7328 35.0999C43.1327 34.6999 43.566 34.4999 44.0326 34.4999C44.4992 34.4999 44.9324 34.6999 45.3324 35.0999L54.7308 43.2999V55.6999ZM54.7308 35.0999V39.6999L51.5313 36.6999V35.0999C51.5313 34.6999 51.6647 34.3332 51.9313 33.9999C52.1979 33.6666 52.5645 33.4666 53.0311 33.3999C53.4977 33.3332 53.8976 33.4666 54.2309 33.7999C54.5642 34.1332 54.7308 34.5666 54.7308 35.0999ZM44.1326 37.8999C42.9328 37.8999 41.9329 38.3332 41.1331 39.1999C40.3332 40.0666 39.9333 41.0666 39.9333 42.1999C39.9333 43.3332 40.3332 44.2999 41.1331 45.0999C41.9329 45.8999 42.8994 46.2999 44.0326 46.2999C45.1657 46.2999 46.1656 45.8999 47.0321 45.0999C47.8986 44.2999 48.3319 43.3332 48.3319 42.1999C48.3319 41.0666 47.8986 40.0666 47.0321 39.1999C46.1656 38.3332 45.1991 37.8999 44.1326 37.8999ZM45.3324 42.0999C45.3324 42.4999 45.2324 42.8332 45.0324 43.0999C44.8325 43.3666 44.5325 43.4999 44.1326 43.4999C43.7326 43.4999 43.3994 43.3666 43.1327 43.0999C42.8661 42.8332 42.7328 42.4999 42.7328 42.0999C42.7328 41.6999 42.8661 41.3666 43.1327 41.0999C43.3994 40.8332 43.7326 40.6999 44.1326 40.6999C44.5325 40.6999 44.8325 40.8332 45.0324 41.0999C45.2324 41.3666 45.3324 41.6999 45.3324 42.0999ZM25.9356 56.8999H8.13857C6.93877 56.8999 5.87228 56.4666 4.93911 55.5999C4.00593 54.7332 3.53934 53.6999 3.53934 52.4999V8.0999C3.53934 6.8999 4.00593 5.83324 4.93911 4.8999C5.87228 3.96657 6.93877 3.4999 8.13857 3.4999H48.7318C50.0649 3.4999 51.1647 3.96657 52.0313 4.8999C52.8978 5.83324 53.331 6.8999 53.331 8.0999V25.8999C53.331 26.2999 53.4644 26.6332 53.731 26.8999C53.9976 27.1666 54.3309 27.2999 54.7308 27.2999C55.1307 27.2999 55.464 27.1666 55.7306 26.8999C55.9973 26.6332 56.1306 26.2999 56.1306 25.8999V8.0999C56.1306 6.0999 55.3974 4.36657 53.9309 2.8999C52.4645 1.43324 50.7315 0.699902 48.7318 0.699902H8.13857C6.13891 0.699902 4.40586 1.43324 2.93944 2.8999C1.47302 4.36657 0.739807 6.0999 0.739807 8.0999V52.4999C0.739807 54.4999 1.47302 56.2332 2.93944 57.6999C4.40586 59.1666 6.13891 59.8999 8.13857 59.8999H25.9356C26.3355 59.8999 26.7021 59.7332 27.0354 59.3999C27.3687 59.0666 27.5353 58.7332 27.5353 58.3999C27.5353 58.0666 27.3687 57.7332 27.0354 57.3999C26.7021 57.0666 26.3355 56.8999 25.9356 56.8999ZM43.3327 14.8999C43.3327 14.4999 43.1994 14.1666 42.9328 13.8999C42.6662 13.6332 42.3329 13.4999 41.9329 13.4999H14.1376C13.7376 13.4999 13.4044 13.6332 13.1377 13.8999C12.8711 14.1666 12.7378 14.4999 12.7378 14.8999C12.7378 15.2999 12.8711 15.6332 13.1377 15.8999C13.4044 16.1666 13.7376 16.2999 14.1376 16.2999H41.9329C42.3329 16.2999 42.6662 16.1666 42.9328 15.8999C43.1994 15.6332 43.3327 15.2999 43.3327 14.8999ZM36.5338 25.6999C36.5338 25.4332 36.4005 25.1332 36.1339 24.7999C35.8673 24.4666 35.534 24.2999 35.1341 24.2999H14.1376C13.7376 24.2999 13.4044 24.4666 13.1377 24.7999C12.8711 25.1332 12.7378 25.4666 12.7378 25.7999C12.7378 26.1332 12.8711 26.4666 13.1377 26.7999C13.4044 27.1332 13.7376 27.2999 14.1376 27.2999H35.1341C35.534 27.2999 35.8673 27.1332 36.1339 26.7999C36.4005 26.4666 36.5338 26.0999 36.5338 25.6999ZM14.1376 35.2999C13.7376 35.2999 13.4044 35.4332 13.1377 35.6999C12.8711 35.9666 12.7378 36.2999 12.7378 36.6999C12.7378 37.0999 12.8711 37.4332 13.1377 37.6999C13.4044 37.9666 13.7376 38.0999 14.1376 38.0999H22.7361C23.0028 38.0999 23.3027 37.9666 23.636 37.6999C23.9693 37.4332 24.1359 37.0999 24.1359 36.6999C24.1359 36.2999 23.9693 35.9666 23.636 35.6999C23.3027 35.4332 23.0028 35.2999 22.7361 35.2999H14.1376Z" fill="#1A1A1A"/>
</g>
<defs>
<clipPath id="clip0_1_35">
<rect width="60.01" height="60" fill="white" transform="matrix(1 0 0 -1 0.329834 60.2999)"/>
</clipPath>
</defs>
</svg>
