<svg width="36" height="36" viewBox="0 0 36 36" fill="none" xmlns="http://www.w3.org/2000/svg">
<g clip-path="url(#clip0_1_148)">
<path d="M14.05 22.9036C14.05 23.137 14.1278 23.312 14.2833 23.4286C14.4389 23.5453 14.5944 23.6036 14.75 23.6036C14.9056 23.6036 15.0611 23.5453 15.2167 23.4286C15.3722 23.312 15.45 23.1564 15.45 22.962C15.45 22.7675 15.3722 22.612 15.2167 22.4953C15.0611 22.3786 14.9056 22.3203 14.75 22.3203C14.5944 22.3203 14.4389 22.3786 14.2833 22.4953C14.1278 22.612 14.05 22.7481 14.05 22.9036ZM17.55 22.9036C17.55 23.137 17.6278 23.312 17.7833 23.4286C17.9389 23.5453 18.0944 23.6036 18.25 23.6036C18.4056 23.6036 18.5611 23.5453 18.7167 23.4286C18.8722 23.312 18.95 23.1564 18.95 22.962C18.95 22.7675 18.8722 22.612 18.7167 22.4953C18.5611 22.3786 18.4056 22.3203 18.25 22.3203C18.0944 22.3203 17.9389 22.3786 17.7833 22.4953C17.6278 22.612 17.55 22.7481 17.55 22.9036ZM21.05 22.9036C21.05 23.137 21.1278 23.312 21.2833 23.4286C21.4389 23.5453 21.5944 23.6036 21.75 23.6036C21.9056 23.6036 22.0611 23.5453 22.2167 23.4286C22.3722 23.312 22.45 23.1564 22.45 22.962C22.45 22.7675 22.3722 22.612 22.2167 22.4953C22.0611 22.3786 21.9056 22.3203 21.75 22.3203C21.5944 22.3203 21.4389 22.3786 21.2833 22.4953C21.1278 22.612 21.05 22.7481 21.05 22.9036ZM7.28333 23.6036C6.35 23.6036 5.49444 23.3509 4.71667 22.8453C3.93889 22.3397 3.375 21.6592 3.025 20.8036C2.675 19.9481 2.59722 19.0536 2.79167 18.1203C2.98611 17.187 3.41389 16.3897 4.075 15.7286C4.73611 15.0675 5.51389 14.6592 6.40833 14.5036C7.30278 14.3481 8.17778 14.4453 9.03333 14.7953C9.88889 15.1453 10.5889 15.7092 11.1333 16.487C11.6778 17.2647 11.95 18.1203 11.95 19.0536C11.95 20.2981 11.5028 21.3675 10.6083 22.262C9.71389 23.1564 8.60556 23.6036 7.28333 23.6036ZM7.28333 15.787C6.66111 15.787 6.07778 15.962 5.53333 16.312C4.98889 16.662 4.58056 17.1481 4.30833 17.7703C4.03611 18.3925 3.97778 19.0342 4.13333 19.6953C4.28889 20.3564 4.6 20.9009 5.06667 21.3286C5.53333 21.7564 6.07778 22.0481 6.7 22.2036C7.32222 22.3592 7.94444 22.3009 8.56667 22.0286C9.18889 21.7564 9.675 21.3481 10.025 20.8036C10.375 20.2592 10.55 19.6759 10.55 19.0536C10.55 18.1203 10.2389 17.3425 9.61667 16.7203C8.99444 16.0981 8.21667 15.787 7.28333 15.787ZM13.2333 31.887H1.45C1.21667 31.887 1.04167 31.8286 0.925 31.712C0.808333 31.5953 0.75 31.4203 0.75 31.187V28.8536C0.75 27.0647 1.39167 25.5286 2.675 24.2453C3.95833 22.962 5.51389 22.3203 7.34167 22.3203C9.16944 22.3203 10.7056 22.962 11.95 24.2453C13.1944 25.5286 13.8556 27.0647 13.9333 28.8536V31.187C13.9333 31.4203 13.8556 31.5953 13.7 31.712C13.5444 31.8286 13.3889 31.887 13.2333 31.887ZM2.15 30.487H12.5333V28.8536C12.5333 27.4536 12.0278 26.2481 11.0167 25.237C10.0056 24.2259 8.78056 23.7203 7.34167 23.7203C5.90278 23.7203 4.67778 24.2259 3.66667 25.237C2.65556 26.2481 2.15 27.4536 2.15 28.8536V30.487ZM29.2167 23.6036C28.2833 23.6036 27.4278 23.3509 26.65 22.8453C25.8722 22.3397 25.3083 21.6592 24.9583 20.8036C24.6083 19.9481 24.5111 19.0536 24.6667 18.1203C24.8222 17.187 25.2306 16.3897 25.8917 15.7286C26.5528 15.0675 27.35 14.6592 28.2833 14.5036C29.2167 14.3481 30.1111 14.4453 30.9667 14.7953C31.8222 15.1453 32.5028 15.7092 33.0083 16.487C33.5139 17.2647 33.7667 18.1203 33.7667 19.0536C33.7667 20.2981 33.3194 21.3675 32.425 22.262C31.5306 23.1564 30.4611 23.6036 29.2167 23.6036ZM29.2167 15.787C28.5167 15.787 27.8944 15.962 27.35 16.312C26.8056 16.662 26.4167 17.1481 26.1833 17.7703C25.95 18.3925 25.8917 19.0342 26.0083 19.6953C26.125 20.3564 26.4167 20.9009 26.8833 21.3286C27.35 21.7564 27.9139 22.0481 28.575 22.2036C29.2361 22.3592 29.8583 22.3009 30.4417 22.0286C31.025 21.7564 31.4917 21.3481 31.8417 20.8036C32.1917 20.2592 32.3667 19.6759 32.3667 19.0536C32.3667 18.1203 32.0556 17.3425 31.4333 16.7203C30.8111 16.0981 30.0722 15.787 29.2167 15.787ZM35.05 31.887H23.2667C23.1111 31.887 22.9556 31.8286 22.8 31.712C22.6444 31.5953 22.5667 31.4203 22.5667 31.187V28.8536C22.6444 27.0647 23.3056 25.5286 24.55 24.2453C25.7944 22.962 27.3306 22.3203 29.1583 22.3203C30.9861 22.3203 32.5417 22.962 33.825 24.2453C35.1083 25.5286 35.75 27.0647 35.75 28.8536V31.187C35.75 31.4203 35.6917 31.5953 35.575 31.712C35.4583 31.8286 35.2833 31.887 35.05 31.887ZM23.9667 30.487H34.35V28.8536C34.35 27.4536 33.8444 26.2481 32.8333 25.237C31.8222 24.2259 30.5972 23.7203 29.1583 23.7203C27.7194 23.7203 26.4944 24.2259 25.4833 25.237C24.4722 26.2481 23.9667 27.4536 23.9667 28.8536V30.487ZM15.1 18.8203C14.9444 18.8203 14.7889 18.762 14.6333 18.6453C14.4778 18.5286 14.4 18.3925 14.4 18.237V16.137H13.8167C13.1944 16.137 12.65 15.9231 12.1833 15.4953C11.7167 15.0675 11.4833 14.5425 11.4833 13.9203V7.2703C11.4833 6.64807 11.7167 6.12307 12.1833 5.6953C12.65 5.26752 13.1944 5.05363 13.8167 5.05363H22.5667C23.1889 5.05363 23.7139 5.26752 24.1417 5.6953C24.5694 6.12307 24.7833 6.64807 24.7833 7.2703V13.9203C24.7833 14.5425 24.5694 15.0675 24.1417 15.4953C23.7139 15.9231 23.1889 16.137 22.5667 16.137H18.1333L15.5667 18.7036C15.4889 18.8592 15.3333 18.8981 15.1 18.8203ZM13.8167 6.45363C13.5833 6.45363 13.3694 6.53141 13.175 6.68696C12.9806 6.84252 12.8833 7.03696 12.8833 7.2703V13.9203C12.8833 14.1536 12.9806 14.3675 13.175 14.562C13.3694 14.7564 13.5833 14.8536 13.8167 14.8536H15.1C15.3333 14.8536 15.5083 14.912 15.625 15.0286C15.7417 15.1453 15.8 15.2814 15.8 15.437V16.487L17.3167 14.9703C17.4722 14.8925 17.6278 14.8536 17.7833 14.8536H22.5667C22.8 14.8536 23.0139 14.7564 23.2083 14.562C23.4028 14.3675 23.5 14.1536 23.5 13.9203V7.2703C23.5 7.03696 23.4028 6.84252 23.2083 6.68696C23.0139 6.53141 22.8 6.45363 22.5667 6.45363H13.8167Z" fill="#1A1A1A"/>
</g>
<defs>
<clipPath id="clip0_1_148">
<rect width="35" height="35" fill="white" transform="matrix(1 0 0 -1 0.75 35.9702)"/>
</clipPath>
</defs>
</svg>
