<svg width="61" height="61" viewBox="0 0 61 61" fill="none" xmlns="http://www.w3.org/2000/svg">
<path d="M18.4599 43.4999C18.4599 42.9665 18.6599 42.4999 19.0599 42.0999C19.4599 41.6999 19.8599 41.4999 20.2599 41.4999H41.0599C41.4599 41.4999 41.8599 41.6999 42.2599 42.0999C42.6599 42.4999 42.8599 42.9665 42.8599 43.4999C42.8599 44.0332 42.6599 44.4665 42.2599 44.7999C41.8599 45.1332 41.4599 45.2999 41.0599 45.2999H20.2599C19.8599 45.2999 19.4599 45.1332 19.0599 44.7999C18.6599 44.4665 18.4599 44.0332 18.4599 43.4999ZM38.6599 4.89988C36.3932 3.03321 33.7266 2.09988 30.6599 2.09988C27.5932 2.09988 24.9266 3.03321 22.6599 4.89988L7.6599 16.4999C6.0599 17.8332 4.79323 19.3665 3.8599 21.0999C2.92657 22.8332 2.4599 24.6999 2.4599 26.6999V45.4999C2.4599 47.7665 3.0599 49.8999 4.2599 51.8999C5.4599 53.8999 7.0599 55.4999 9.0599 56.6999C11.0599 57.8999 13.2599 58.4999 15.6599 58.4999H45.6599C48.0599 58.4999 50.2599 57.8999 52.2599 56.6999C54.2599 55.4999 55.8599 53.8999 57.0599 51.8999C58.2599 49.8999 58.8599 47.7665 58.8599 45.4999V26.6999C58.8599 24.6999 58.3932 22.8332 57.4599 21.0999C56.5266 19.3665 55.2599 17.8332 53.6599 16.4999L38.6599 4.89988ZM24.8599 7.89988C26.5932 6.56654 28.5266 5.89988 30.6599 5.89988C32.7932 5.89988 34.7266 6.56654 36.4599 7.89988L51.4599 19.4999C52.5266 20.4332 53.3932 21.5332 54.0599 22.7999C54.7266 24.0665 55.0599 25.3665 55.0599 26.6999V45.4999C55.0599 48.0332 54.1266 50.1999 52.2599 51.9999C50.3932 53.7999 48.1932 54.6999 45.6599 54.6999H15.6599C13.1266 54.6999 10.9266 53.7999 9.0599 51.9999C7.19323 50.1999 6.2599 48.0332 6.2599 45.4999V26.6999C6.2599 25.3665 6.59323 24.0665 7.2599 22.7999C7.92657 21.5332 8.79323 20.4332 9.8599 19.4999L24.8599 7.89988Z" fill="#1A1A1A"/>
</svg>
