<svg width="19" height="19" viewBox="0 0 19 19" fill="none" xmlns="http://www.w3.org/2000/svg">
<g clip-path="url(#clip0_1_22)">
<path d="M13.07 12.93C12.91 12.93 12.8 12.85 12.74 12.69C12.68 12.53 12.71 12.39 12.83 12.27C12.95 12.15 13.09 12.14 13.25 12.24C13.41 12.34 13.47 12.45 13.43 12.57C13.39 12.69 13.34 12.78 13.28 12.84C13.22 12.9 13.15 12.93 13.07 12.93ZM11.09 6.33004H7.84997C7.72997 6.33004 7.63997 6.36004 7.57997 6.42004C7.51997 6.48004 7.48997 6.57004 7.48997 6.69004V11.13C7.48997 11.25 7.51997 11.34 7.57997 11.4C7.63997 11.46 7.72997 11.49 7.84997 11.49H11.09C11.21 11.49 11.3 11.46 11.36 11.4C11.42 11.34 11.45 11.25 11.45 11.13V6.69004C11.45 6.57004 11.42 6.48004 11.36 6.42004C11.3 6.36004 11.21 6.33004 11.09 6.33004ZM8.14997 7.05004H9.10997V10.83H8.14997V7.05004ZM10.79 10.83H9.82997V7.05004H10.79V10.83ZM18.29 9.57004L13.43 6.69004V4.11004C13.43 3.99004 13.39 3.89004 13.31 3.81004L9.70997 0.990037C9.54997 0.910037 9.38997 0.910037 9.22997 0.990037L5.62997 3.81004C5.54997 3.89004 5.50997 3.99004 5.50997 4.11004V6.69004L0.649971 9.57004C0.529971 9.61004 0.469971 9.71004 0.469971 9.87004V11.79C0.469971 11.91 0.509971 12 0.589971 12.06C0.669971 12.12 0.739971 12.15 0.799971 12.15C0.859971 12.15 0.929971 12.13 1.00997 12.09L1.24997 11.97V17.49C1.24997 17.57 1.27997 17.65 1.33997 17.73C1.39997 17.81 1.48997 17.85 1.60997 17.85H17.33C17.45 17.85 17.54 17.81 17.6 17.73C17.66 17.65 17.69 17.57 17.69 17.49V11.97L17.93 12.09C18.01 12.13 18.08 12.15 18.14 12.15C18.2 12.15 18.27 12.12 18.35 12.06C18.43 12 18.47 11.91 18.47 11.79V9.87004C18.47 9.71004 18.41 9.61004 18.29 9.57004ZM9.46997 1.71004L12.71 4.29004V5.43004L9.70997 3.09004C9.54997 2.97004 9.38997 2.97004 9.22997 3.09004L6.22997 5.43004V4.29004L9.46997 1.71004ZM1.18997 10.05L5.50997 7.47004V8.61004L1.18997 11.19V10.05ZM1.96997 13.23H3.46997V15.33H1.96997V13.23ZM1.96997 15.99H3.82997C3.94997 15.99 4.03997 15.96 4.09997 15.9C4.15997 15.84 4.18997 15.75 4.18997 15.63V12.87C4.18997 12.75 4.15997 12.66 4.09997 12.6C4.03997 12.54 3.94997 12.51 3.82997 12.51H1.96997V11.55L5.50997 9.45004V17.13H1.96997V15.99ZM8.62997 17.13V13.29H10.31V17.13H8.62997ZM16.97 15.33H15.35V13.23H16.97V15.33ZM16.97 12.51H14.99C14.91 12.51 14.84 12.54 14.78 12.6C14.72 12.66 14.69 12.75 14.69 12.87V15.63C14.69 15.75 14.72 15.84 14.78 15.9C14.84 15.96 14.91 15.99 14.99 15.99H16.97V17.13H13.43V14.13C13.43 14.05 13.4 13.97 13.34 13.89C13.28 13.81 13.2 13.77 13.1 13.77C13 13.77 12.91 13.81 12.83 13.89C12.75 13.97 12.71 14.05 12.71 14.13V17.13H10.97V12.99C10.97 12.87 10.94 12.78 10.88 12.72C10.82 12.66 10.75 12.63 10.67 12.63H8.26997C8.18997 12.63 8.11997 12.66 8.05997 12.72C7.99997 12.78 7.96997 12.87 7.96997 12.99V17.13H6.22997V6.33004L9.46997 3.81004L12.71 6.33004V10.95C12.71 11.07 12.75 11.16 12.83 11.22C12.91 11.28 13 11.31 13.1 11.31C13.2 11.31 13.28 11.28 13.34 11.22C13.4 11.16 13.43 11.07 13.43 10.95V9.45004L16.97 11.55V12.51ZM17.75 11.19L13.43 8.61004V7.47004L17.75 10.05V11.19Z" fill="#1A1A1A"/>
</g>
<defs>
<clipPath id="clip0_1_22">
<rect width="18" height="18" fill="white" transform="matrix(1 0 0 -1 0.469971 18.39)"/>
</clipPath>
</defs>
</svg>
