<svg width="61" height="61" viewBox="0 0 61 61" fill="none" xmlns="http://www.w3.org/2000/svg">
<path d="M30.9899 56.7C30.1899 56.7 29.4566 56.5 28.7899 56.1L19.9899 50.9C16.2566 48.7666 13.2233 45.8333 10.8899 42.1C8.55659 38.3666 7.18993 34.3666 6.78993 30.1L5.58993 15.0999C5.45659 14.0333 5.65659 13.0666 6.18993 12.2C6.72326 11.3333 7.45659 10.7666 8.38993 10.5C9.85659 10.0999 11.1899 9.49995 12.3899 8.69995C13.8566 7.76662 15.1899 6.56662 16.3899 5.09995C17.1899 4.03328 18.3233 3.49995 19.7899 3.49995H42.1899C43.6566 3.49995 44.7899 4.03328 45.5899 5.09995C46.7899 6.56662 48.1233 7.76662 49.5899 8.69995C50.7899 9.49995 52.1233 10.0999 53.5899 10.5C54.5233 10.7666 55.2566 11.3333 55.7899 12.2C56.3233 13.0666 56.5899 13.9666 56.5899 14.9L55.1899 29.9C54.9233 34.3 53.6233 38.3333 51.2899 42C48.9566 45.6666 45.9233 48.6333 42.1899 50.9L33.3899 56.1C32.5899 56.5 31.7899 56.7 30.9899 56.7ZM19.7899 7.09995C19.5233 7.09995 19.3233 7.16662 19.1899 7.29995C17.8566 9.03328 16.3233 10.5666 14.5899 11.9C13.1233 12.8333 11.5233 13.5 9.78993 13.9C9.38993 14.0333 9.18993 14.2999 9.18993 14.7L10.5899 29.7C10.8566 33.4333 11.9899 36.9 13.9899 40.1C15.9899 43.3 18.5899 45.8333 21.7899 47.7L30.5899 52.9C30.8566 53.0333 31.1233 53.0333 31.3899 52.9L40.1899 47.7C43.3899 45.8333 45.9899 43.3333 47.9899 40.2C49.9899 37.0666 51.1233 33.5666 51.3899 29.7L52.7899 14.7C52.7899 14.4333 52.5899 14.2333 52.1899 14.0999C50.4566 13.7 48.8566 12.9666 47.3899 11.9C45.6566 10.7 44.1233 9.23328 42.7899 7.49995C42.6566 7.36662 42.4566 7.29995 42.1899 7.29995L19.7899 7.09995ZM29.1899 35.9C28.6566 35.9 28.1899 35.7 27.7899 35.3L22.7899 30.3C22.5233 30.0333 22.4233 29.6666 22.4899 29.2C22.5566 28.7333 22.7566 28.3333 23.0899 28C23.4233 27.6666 23.7899 27.4666 24.1899 27.4C24.5899 27.3333 24.9899 27.4333 25.3899 27.7L29.1899 31.5L37.7899 22.7C38.1899 22.5666 38.5899 22.5 38.9899 22.5C39.3899 22.5 39.7566 22.6666 40.0899 23C40.4233 23.3333 40.6233 23.7 40.6899 24.0999C40.7566 24.5 40.6566 24.9 40.3899 25.3L30.3899 35.3C30.1233 35.7 29.7233 35.9 29.1899 35.9Z" fill="#1A1A1A"/>
</svg>
