<svg width="19" height="19" viewBox="0 0 19 19" fill="none" xmlns="http://www.w3.org/2000/svg">
<g clip-path="url(#clip0_1_12)">
<path d="M2.52001 10.47C2.40001 10.47 2.31001 10.5 2.25001 10.56C2.19001 10.62 2.16001 10.71 2.16001 10.83V17.61C2.16001 17.73 2.19001 17.83 2.25001 17.91C2.31001 17.99 2.40001 18.03 2.52001 18.03H16.02C16.1 18.03 16.18 17.99 16.26 17.91C16.34 17.83 16.38 17.73 16.38 17.61V12.09C16.38 11.97 16.34 11.88 16.26 11.82C16.18 11.76 16.09 11.73 15.99 11.73C15.89 11.73 15.81 11.76 15.75 11.82C15.69 11.88 15.66 11.97 15.66 12.09V17.25H2.88001V10.83C2.88001 10.71 2.84001 10.62 2.76001 10.56C2.68001 10.5 2.60001 10.47 2.52001 10.47ZM4.02001 12.03C3.90001 12.03 3.81001 12.06 3.75001 12.12C3.69001 12.18 3.66001 12.27 3.66001 12.39V17.61C3.66001 17.73 3.69001 17.83 3.75001 17.91C3.81001 17.99 3.90001 18.03 4.02001 18.03H8.16001C8.24001 18.03 8.32001 17.99 8.40001 17.91C8.48001 17.83 8.52001 17.73 8.52001 17.61V13.53C8.52001 13.45 8.48001 13.37 8.40001 13.29C8.32001 13.21 8.23001 13.17 8.13001 13.17C8.03001 13.17 7.94001 13.21 7.86001 13.29C7.78001 13.37 7.74001 13.45 7.74001 13.53V17.25H4.38001V12.75H8.16001C8.24001 12.75 8.32001 12.72 8.40001 12.66C8.48001 12.6 8.52001 12.51 8.52001 12.39C8.52001 12.27 8.48001 12.18 8.40001 12.12C8.32001 12.06 8.24001 12.03 8.16001 12.03H4.02001ZM10.02 12.03C9.90001 12.03 9.81001 12.06 9.75001 12.12C9.69001 12.18 9.66001 12.27 9.66001 12.39V15.75C9.66001 15.87 9.69001 15.96 9.75001 16.02C9.81001 16.08 9.90001 16.11 10.02 16.11H14.52C14.6 16.11 14.68 16.08 14.76 16.02C14.84 15.96 14.88 15.87 14.88 15.75V13.53C14.88 13.45 14.84 13.37 14.76 13.29C14.68 13.21 14.59 13.17 14.49 13.17C14.39 13.17 14.31 13.21 14.25 13.29C14.19 13.37 14.16 13.45 14.16 13.53V15.39H10.38V12.75H14.52C14.6 12.75 14.68 12.72 14.76 12.66C14.84 12.6 14.88 12.51 14.88 12.39C14.88 12.27 14.84 12.18 14.76 12.12C14.68 12.06 14.6 12.03 14.52 12.03H10.02ZM9.24001 8.01003C8.80001 8.01003 8.43001 8.17003 8.13001 8.49003C7.83001 8.81003 7.68001 9.19003 7.68001 9.63003C7.68001 10.07 7.83001 10.45 8.13001 10.77C8.43001 11.09 8.80001 11.25 9.24001 11.25C9.68001 11.25 10.06 11.09 10.38 10.77C10.7 10.45 10.86 10.07 10.86 9.63003C10.86 9.51003 10.82 9.42003 10.74 9.36003C10.66 9.30003 10.57 9.27003 10.47 9.27003C10.37 9.27003 10.28 9.30003 10.2 9.36003C10.12 9.42003 10.08 9.51003 10.08 9.63003C10.08 9.87003 10 10.07 9.84001 10.23C9.68001 10.39 9.48001 10.47 9.24001 10.47C9.00001 10.47 8.80001 10.39 8.64001 10.23C8.48001 10.07 8.40001 9.87003 8.40001 9.63003C8.40001 9.39003 8.48001 9.19003 8.64001 9.03003C8.80001 8.87003 9.00001 8.79003 9.24001 8.79003C9.48001 8.79003 9.68001 8.87003 9.84001 9.03003C9.92001 9.11003 10.01 9.15003 10.11 9.15003C10.21 9.15003 10.3 9.11003 10.38 9.03003C10.46 8.95003 10.5 8.86003 10.5 8.76003C10.5 8.66003 10.46 8.57003 10.38 8.49003C10.06 8.17003 9.68001 8.01003 9.24001 8.01003ZM11.7 13.35C11.54 13.35 11.44 13.43 11.4 13.59L10.98 14.19C10.94 14.31 10.93 14.42 10.95 14.52C10.97 14.62 11.03 14.69 11.13 14.73C11.23 14.77 11.33 14.78 11.43 14.76C11.53 14.74 11.6 14.69 11.64 14.61L12 13.95C12.08 13.87 12.1 13.78 12.06 13.68C12.02 13.58 11.97 13.51 11.91 13.47C11.85 13.43 11.78 13.39 11.7 13.35ZM13.2 13.35C13.04 13.35 12.94 13.43 12.9 13.59L12.48 14.19C12.44 14.31 12.43 14.42 12.45 14.52C12.47 14.62 12.53 14.69 12.63 14.73C12.73 14.77 12.83 14.78 12.93 14.76C13.03 14.74 13.1 14.69 13.14 14.61L13.5 13.95C13.58 13.87 13.6 13.78 13.56 13.68C13.52 13.58 13.47 13.51 13.41 13.47C13.35 13.43 13.28 13.39 13.2 13.35ZM15.42 0.750031C14.78 0.750031 14.22 0.990031 13.74 1.47003C13.26 1.95003 13.02 2.53003 13.02 3.21003C13.02 3.89003 13.26 4.46003 13.74 4.92003C14.22 5.38003 14.79 5.61003 15.45 5.61003C16.11 5.61003 16.68 5.38003 17.16 4.92003C17.64 4.46003 17.88 3.89003 17.88 3.21003C17.88 2.53003 17.64 1.95003 17.16 1.47003C16.68 0.990031 16.1 0.750031 15.42 0.750031ZM15.42 1.53003C15.9 1.53003 16.31 1.69003 16.65 2.01003C16.99 2.33003 17.16 2.73003 17.16 3.21003C17.16 3.69003 16.99 4.09003 16.65 4.41003C16.31 4.73003 15.91 4.89003 15.45 4.89003C14.99 4.89003 14.59 4.73003 14.25 4.41003C13.91 4.09003 13.74 3.69003 13.74 3.21003C13.74 2.73003 13.91 2.33003 14.25 2.01003C14.59 1.69003 14.98 1.53003 15.42 1.53003ZM2.58001 3.93003C2.50001 3.93003 2.42001 3.96003 2.34001 4.02003C2.26001 4.08003 2.22001 4.17003 2.22001 4.29003V8.55003C2.22001 8.63003 2.26001 8.71003 2.34001 8.79003C2.42001 8.87003 2.51001 8.91003 2.61001 8.91003C2.71001 8.91003 2.79001 8.87003 2.85001 8.79003C2.91001 8.71003 2.94001 8.63003 2.94001 8.55003V4.65003H4.44001V6.87003C4.44001 6.99003 4.48001 7.09003 4.56001 7.17003C4.64001 7.25003 4.73001 7.29003 4.83001 7.29003C4.93001 7.29003 5.02001 7.25003 5.10001 7.17003C5.18001 7.09003 5.22001 6.99003 5.22001 6.87003V4.29003C5.22001 4.17003 5.18001 4.08003 5.10001 4.02003C5.02001 3.96003 4.94001 3.93003 4.86001 3.93003H2.58001ZM1.86001 2.55003C1.74001 2.55003 1.64001 2.59003 1.56001 2.67003C1.48001 2.75003 1.44001 2.83003 1.44001 2.91003V4.29003C1.44001 4.37003 1.48001 4.45003 1.56001 4.53003C1.64001 4.61003 1.74001 4.65003 1.86001 4.65003H5.58001C5.70001 4.65003 5.79001 4.61003 5.85001 4.53003C5.91001 4.45003 5.94001 4.37003 5.94001 4.29003V2.91003C5.94001 2.83003 5.91001 2.75003 5.85001 2.67003C5.79001 2.59003 5.70001 2.55003 5.58001 2.55003H1.86001ZM2.22001 3.33003H5.22001V3.93003H2.22001V3.33003ZM5.76001 15.03C5.76001 15.15 5.71001 15.26 5.61001 15.36C5.51001 15.46 5.40001 15.51 5.28001 15.51C5.16001 15.51 5.05001 15.46 4.95001 15.36C4.85001 15.26 4.80001 15.14 4.80001 15C4.80001 14.86 4.85001 14.75 4.95001 14.67C5.05001 14.59 5.16001 14.55 5.28001 14.55C5.40001 14.55 5.51001 14.59 5.61001 14.67C5.71001 14.75 5.76001 14.87 5.76001 15.03ZM9.18001 3.87003C8.98001 3.87003 8.80001 3.93003 8.64001 4.05003L1.14001 9.21003C0.980012 9.33003 0.880012 9.50003 0.840012 9.72003C0.800012 9.94003 0.840012 10.13 0.960012 10.29L1.38001 10.89C1.50001 11.05 1.66001 11.15 1.86001 11.19C2.06001 11.23 2.26001 11.19 2.46001 11.07L9.24001 6.33003L16.08 11.07C16.24 11.19 16.43 11.23 16.65 11.19C16.87 11.15 17.04 11.05 17.16 10.89L17.58 10.29C17.7 10.13 17.74 9.94003 17.7 9.72003C17.66 9.50003 17.56 9.33003 17.4 9.21003L9.90001 4.05003C9.70001 3.93003 9.46001 3.87003 9.18001 3.87003ZM9.24001 4.59003C9.32001 4.59003 9.40001 4.61003 9.48001 4.65003L16.92 9.87003L16.5 10.47L9.48001 5.61003C9.32001 5.49003 9.18001 5.49003 9.06001 5.61003L1.98001 10.47L1.56001 9.87003L9.06001 4.65003C9.10001 4.61003 9.16001 4.59003 9.24001 4.59003Z" fill="#1A1A1A"/>
</g>
<defs>
<clipPath id="clip0_1_12">
<rect width="18" height="18" fill="white" transform="matrix(1 0 0 -1 0.359985 18.39)"/>
</clipPath>
</defs>
</svg>
